<svg width="128" height="128" viewBox="0 0 128 128" fill="none" xmlns="http://www.w3.org/2000/svg">
<g clip-path="url(#clip0_2_3)">
<rect width="128" height="128" fill="#04382F"/>
<path d="M1.06667 87.5616L0 93V129.5H128V35L126.933 35.7664C125.867 36.5327 123.733 38.0654 121.6 43.5403C119.467 49.0151 117.333 58.432 115.2 60.8755C113.067 63.3191 110.933 58.7891 108.8 56.6331C106.667 54.477 104.533 54.6948 102.4 54.419C100.267 54.1433 98.1333 53.3739 96 50.1218C93.8667 46.8697 91.7333 41.1348 89.6 38.15C87.4667 35.1651 85.3333 34.9302 83.2 37.2309C81.0667 39.5315 78.9333 44.3676 76.8 47.031C74.6667 49.6944 72.5333 50.1851 70.4 50.3387C68.2667 50.4923 66.1333 50.3088 64 54.3005C61.8667 58.2922 59.7333 66.4591 57.6 68.1873C55.4667 69.9155 53.3333 65.2051 51.2 59.9319C49.0667 54.6587 46.9333 48.8227 44.8 52.4731C42.6667 56.1235 40.5333 69.2604 38.4 72.5158C36.2667 75.7711 34.1333 69.1447 32 69.8867C29.8667 70.6286 27.7333 78.7388 25.6 78.4549C23.4667 78.171 21.3333 69.493 19.2 69.0181C17.0667 68.5431 14.9333 76.2711 12.8 76.1969C10.6667 76.1226 8.53333 68.2461 6.4 69.7462C4.26667 71.2463 2.13333 82.1232 1.06667 87.5616Z" fill="url(#paint0_linear_2_3)"/>
<path d="M-1 97.5L1.06667 87.5616C2.13333 82.1232 4.26667 71.2463 6.4 69.7462C8.53333 68.2461 10.6667 76.1226 12.8 76.1969C14.9333 76.2711 17.0667 68.5431 19.2 69.0181C21.3333 69.493 23.4667 78.171 25.6 78.4549C27.7333 78.7388 29.8667 70.6286 32 69.8867C34.1333 69.1447 36.2667 75.7711 38.4 72.5158C40.5333 69.2605 42.6667 56.1235 44.8 52.4731C46.9333 48.8227 49.0667 54.6587 51.2 59.9319C53.3333 65.2051 55.4667 69.9155 57.6 68.1873C59.7333 66.4591 61.8667 58.2922 64 54.3005C66.1333 50.3088 68.2667 50.4923 70.4 50.3387C72.5333 50.1851 74.6667 49.6944 76.8 47.031C78.9333 44.3676 81.0667 39.5315 83.2 37.2309C85.3333 34.9302 87.4667 35.1651 89.6 38.15C91.7333 41.1348 93.8667 46.8697 96 50.1218C98.1333 53.3739 100.267 54.1432 102.4 54.419C104.533 54.6948 106.667 54.477 108.8 56.6331C110.933 58.7891 113.067 63.3191 115.2 60.8755C117.333 58.432 119.467 49.0151 121.6 43.5403C123.733 38.0654 125.867 36.5327 126.933 35.7664L131.5 32.5" stroke="#72C6FF" stroke-width="2"/>
<path d="M85 30.5L82 21H47" stroke="#36FDB5" stroke-linecap="round" stroke-linejoin="round" stroke-dasharray="2 3"/>
<path d="M58 73.5L64.5 99.5H78.5" stroke="#F82766" stroke-linecap="round" stroke-linejoin="round" stroke-dasharray="2 3"/>
<circle cx="7" cy="69" r="3" fill="#29E48A"/>
<circle cx="19" cy="68" r="3" fill="#29E48A"/>
<circle cx="26" cy="79" r="3" fill="#E42961"/>
<circle cx="37" cy="74" r="2" fill="#E42961"/>
<circle cx="57" cy="68" r="5" fill="#E76014"/>
<circle cx="114" cy="62" r="3" fill="#E42961"/>
<circle cx="12.5" cy="76.5" r="2.5" fill="#E42961"/>
<circle cx="46" cy="51" r="4" fill="#29E48A"/>
<circle cx="86" cy="36" r="5" fill="#16FB2D"/>
<path d="M9.77344 22.6445H16.7871V20.5117H9.77344V22.6445ZM12.2109 24.8711H14.3438V18.2852H12.2109V24.8711ZM21.8086 24.877C22.5391 24.877 23.1719 24.7754 23.707 24.5723C24.2461 24.3691 24.6621 24.0762 24.9551 23.6934C25.252 23.3105 25.4004 22.8496 25.4004 22.3105V22.2988C25.4004 21.627 25.1914 21.1094 24.7734 20.7461C24.3555 20.3828 23.7207 20.1113 22.8691 19.9316L21.9961 19.75C21.5625 19.6602 21.2363 19.5625 21.0176 19.457C20.7988 19.3516 20.6895 19.1973 20.6895 18.9941V18.9824C20.6895 18.8379 20.7324 18.7227 20.8184 18.6367C20.9082 18.5469 21.0391 18.4824 21.2109 18.4434C21.3828 18.4004 21.5938 18.3789 21.8438 18.3789C22.0898 18.3789 22.3047 18.4102 22.4883 18.4727C22.6719 18.5352 22.8203 18.6309 22.9336 18.7598C23.0469 18.8848 23.1191 19.0449 23.1504 19.2402L23.1562 19.2461H25.248L25.2598 19.2402C25.2363 18.7129 25.0879 18.2578 24.8145 17.875C24.541 17.4883 24.1504 17.1914 23.6426 16.9844C23.1387 16.7734 22.5254 16.668 21.8027 16.668C21.1543 16.668 20.5762 16.7656 20.0684 16.9609C19.5645 17.1562 19.166 17.4414 18.873 17.8164C18.584 18.1875 18.4395 18.6387 18.4395 19.1699V19.1816C18.4395 19.8652 18.6543 20.4004 19.084 20.7871C19.5137 21.1699 20.1289 21.4473 20.9297 21.6191L21.8027 21.8008C22.2793 21.8984 22.623 21.9961 22.834 22.0938C23.0449 22.1875 23.1504 22.3457 23.1504 22.5684V22.5801C23.1504 22.7324 23.0957 22.8516 22.9863 22.9375C22.877 23.0234 22.7246 23.084 22.5293 23.1191C22.334 23.1504 22.1074 23.166 21.8496 23.166C21.6035 23.166 21.3867 23.1445 21.1992 23.1016C21.0156 23.0547 20.8652 22.9785 20.748 22.873C20.6309 22.7676 20.5547 22.6289 20.5195 22.457L20.5137 22.4512H18.4102L18.3984 22.457C18.4141 22.9883 18.5625 23.4336 18.8438 23.793C19.1289 24.1523 19.5234 24.4238 20.0273 24.6074C20.5352 24.7871 21.1289 24.877 21.8086 24.877ZM21.5801 25.8203H22.2246V15.6953H21.5801V25.8203ZM30.3633 24.877C31.0938 24.877 31.7266 24.7754 32.2617 24.5723C32.8008 24.3691 33.2168 24.0762 33.5098 23.6934C33.8066 23.3105 33.9551 22.8496 33.9551 22.3105V22.2988C33.9551 21.627 33.7461 21.1094 33.3281 20.7461C32.9102 20.3828 32.2754 20.1113 31.4238 19.9316L30.5508 19.75C30.1172 19.6602 29.791 19.5625 29.5723 19.457C29.3535 19.3516 29.2441 19.1973 29.2441 18.9941V18.9824C29.2441 18.8379 29.2871 18.7227 29.373 18.6367C29.4629 18.5469 29.5938 18.4824 29.7656 18.4434C29.9375 18.4004 30.1484 18.3789 30.3984 18.3789C30.6445 18.3789 30.8594 18.4102 31.043 18.4727C31.2266 18.5352 31.375 18.6309 31.4883 18.7598C31.6016 18.8848 31.6738 19.0449 31.7051 19.2402L31.7109 19.2461H33.8027L33.8145 19.2402C33.791 18.7129 33.6426 18.2578 33.3691 17.875C33.0957 17.4883 32.7051 17.1914 32.1973 16.9844C31.6934 16.7734 31.0801 16.668 30.3574 16.668C29.709 16.668 29.1309 16.7656 28.623 16.9609C28.1191 17.1562 27.7207 17.4414 27.4277 17.8164C27.1387 18.1875 26.9941 18.6387 26.9941 19.1699V19.1816C26.9941 19.8652 27.209 20.4004 27.6387 20.7871C28.0684 21.1699 28.6836 21.4473 29.4844 21.6191L30.3574 21.8008C30.834 21.8984 31.1777 21.9961 31.3887 22.0938C31.5996 22.1875 31.7051 22.3457 31.7051 22.5684V22.5801C31.7051 22.7324 31.6504 22.8516 31.541 22.9375C31.4316 23.0234 31.2793 23.084 31.084 23.1191C30.8887 23.1504 30.6621 23.166 30.4043 23.166C30.1582 23.166 29.9414 23.1445 29.7539 23.1016C29.5703 23.0547 29.4199 22.9785 29.3027 22.873C29.1855 22.7676 29.1094 22.6289 29.0742 22.457L29.0684 22.4512H26.9648L26.9531 22.457C26.9688 22.9883 27.1172 23.4336 27.3984 23.793C27.6836 24.1523 28.0781 24.4238 28.582 24.6074C29.0898 24.7871 29.6836 24.877 30.3633 24.877ZM30.1348 25.8203H30.7793V15.6953H30.1348V25.8203ZM38.918 24.877C39.6484 24.877 40.2812 24.7754 40.8164 24.5723C41.3555 24.3691 41.7715 24.0762 42.0645 23.6934C42.3613 23.3105 42.5098 22.8496 42.5098 22.3105V22.2988C42.5098 21.627 42.3008 21.1094 41.8828 20.7461C41.4648 20.3828 40.8301 20.1113 39.9785 19.9316L39.1055 19.75C38.6719 19.6602 38.3457 19.5625 38.127 19.457C37.9082 19.3516 37.7988 19.1973 37.7988 18.9941V18.9824C37.7988 18.8379 37.8418 18.7227 37.9277 18.6367C38.0176 18.5469 38.1484 18.4824 38.3203 18.4434C38.4922 18.4004 38.7031 18.3789 38.9531 18.3789C39.1992 18.3789 39.4141 18.4102 39.5977 18.4727C39.7812 18.5352 39.9297 18.6309 40.043 18.7598C40.1562 18.8848 40.2285 19.0449 40.2598 19.2402L40.2656 19.2461H42.3574L42.3691 19.2402C42.3457 18.7129 42.1973 18.2578 41.9238 17.875C41.6504 17.4883 41.2598 17.1914 40.752 16.9844C40.248 16.7734 39.6348 16.668 38.9121 16.668C38.2637 16.668 37.6855 16.7656 37.1777 16.9609C36.6738 17.1562 36.2754 17.4414 35.9824 17.8164C35.6934 18.1875 35.5488 18.6387 35.5488 19.1699V19.1816C35.5488 19.8652 35.7637 20.4004 36.1934 20.7871C36.623 21.1699 37.2383 21.4473 38.0391 21.6191L38.9121 21.8008C39.3887 21.8984 39.7324 21.9961 39.9434 22.0938C40.1543 22.1875 40.2598 22.3457 40.2598 22.5684V22.5801C40.2598 22.7324 40.2051 22.8516 40.0957 22.9375C39.9863 23.0234 39.834 23.084 39.6387 23.1191C39.4434 23.1504 39.2168 23.166 38.959 23.166C38.7129 23.166 38.4961 23.1445 38.3086 23.1016C38.125 23.0547 37.9746 22.9785 37.8574 22.873C37.7402 22.7676 37.6641 22.6289 37.6289 22.457L37.623 22.4512H35.5195L35.5078 22.457C35.5234 22.9883 35.6719 23.4336 35.9531 23.793C36.2383 24.1523 36.6328 24.4238 37.1367 24.6074C37.6445 24.7871 38.2383 24.877 38.918 24.877ZM38.6895 25.8203H39.334V15.6953H38.6895V25.8203Z" fill="#36FDB5"/>
<path d="M84.0547 100.645H87.9102V98.5117H84.0547V100.645ZM93.2188 102.877C93.9492 102.877 94.582 102.775 95.1172 102.572C95.6562 102.369 96.0723 102.076 96.3652 101.693C96.6621 101.311 96.8105 100.85 96.8105 100.311V100.299C96.8105 99.627 96.6016 99.1094 96.1836 98.7461C95.7656 98.3828 95.1309 98.1113 94.2793 97.9316L93.4062 97.75C92.9727 97.6602 92.6465 97.5625 92.4277 97.457C92.209 97.3516 92.0996 97.1973 92.0996 96.9941V96.9824C92.0996 96.8379 92.1426 96.7227 92.2285 96.6367C92.3184 96.5469 92.4492 96.4824 92.6211 96.4434C92.793 96.4004 93.0039 96.3789 93.2539 96.3789C93.5 96.3789 93.7148 96.4102 93.8984 96.4727C94.082 96.5352 94.2305 96.6309 94.3438 96.7598C94.457 96.8848 94.5293 97.0449 94.5605 97.2402L94.5664 97.2461H96.6582L96.6699 97.2402C96.6465 96.7129 96.498 96.2578 96.2246 95.875C95.9512 95.4883 95.5605 95.1914 95.0527 94.9844C94.5488 94.7734 93.9355 94.668 93.2129 94.668C92.5645 94.668 91.9863 94.7656 91.4785 94.9609C90.9746 95.1562 90.5762 95.4414 90.2832 95.8164C89.9941 96.1875 89.8496 96.6387 89.8496 97.1699V97.1816C89.8496 97.8652 90.0645 98.4004 90.4941 98.7871C90.9238 99.1699 91.5391 99.4473 92.3398 99.6191L93.2129 99.8008C93.6895 99.8984 94.0332 99.9961 94.2441 100.094C94.4551 100.188 94.5605 100.346 94.5605 100.568V100.58C94.5605 100.732 94.5059 100.852 94.3965 100.938C94.2871 101.023 94.1348 101.084 93.9395 101.119C93.7441 101.15 93.5176 101.166 93.2598 101.166C93.0137 101.166 92.7969 101.145 92.6094 101.102C92.4258 101.055 92.2754 100.979 92.1582 100.873C92.041 100.768 91.9648 100.629 91.9297 100.457L91.9238 100.451H89.8203L89.8086 100.457C89.8242 100.988 89.9727 101.434 90.2539 101.793C90.5391 102.152 90.9336 102.424 91.4375 102.607C91.9453 102.787 92.5391 102.877 93.2188 102.877ZM92.9902 103.82H93.6348V93.6953H92.9902V103.82ZM101.773 102.877C102.504 102.877 103.137 102.775 103.672 102.572C104.211 102.369 104.627 102.076 104.92 101.693C105.217 101.311 105.365 100.85 105.365 100.311V100.299C105.365 99.627 105.156 99.1094 104.738 98.7461C104.32 98.3828 103.686 98.1113 102.834 97.9316L101.961 97.75C101.527 97.6602 101.201 97.5625 100.982 97.457C100.764 97.3516 100.654 97.1973 100.654 96.9941V96.9824C100.654 96.8379 100.697 96.7227 100.783 96.6367C100.873 96.5469 101.004 96.4824 101.176 96.4434C101.348 96.4004 101.559 96.3789 101.809 96.3789C102.055 96.3789 102.27 96.4102 102.453 96.4727C102.637 96.5352 102.785 96.6309 102.898 96.7598C103.012 96.8848 103.084 97.0449 103.115 97.2402L103.121 97.2461H105.213L105.225 97.2402C105.201 96.7129 105.053 96.2578 104.779 95.875C104.506 95.4883 104.115 95.1914 103.607 94.9844C103.104 94.7734 102.49 94.668 101.768 94.668C101.119 94.668 100.541 94.7656 100.033 94.9609C99.5293 95.1562 99.1309 95.4414 98.8379 95.8164C98.5488 96.1875 98.4043 96.6387 98.4043 97.1699V97.1816C98.4043 97.8652 98.6191 98.4004 99.0488 98.7871C99.4785 99.1699 100.094 99.4473 100.895 99.6191L101.768 99.8008C102.244 99.8984 102.588 99.9961 102.799 100.094C103.01 100.188 103.115 100.346 103.115 100.568V100.58C103.115 100.732 103.061 100.852 102.951 100.938C102.842 101.023 102.689 101.084 102.494 101.119C102.299 101.15 102.072 101.166 101.814 101.166C101.568 101.166 101.352 101.145 101.164 101.102C100.98 101.055 100.83 100.979 100.713 100.873C100.596 100.768 100.52 100.629 100.484 100.457L100.479 100.451H98.375L98.3633 100.457C98.3789 100.988 98.5273 101.434 98.8086 101.793C99.0938 102.152 99.4883 102.424 99.9922 102.607C100.5 102.787 101.094 102.877 101.773 102.877ZM101.545 103.82H102.189V93.6953H101.545V103.82ZM110.328 102.877C111.059 102.877 111.691 102.775 112.227 102.572C112.766 102.369 113.182 102.076 113.475 101.693C113.771 101.311 113.92 100.85 113.92 100.311V100.299C113.92 99.627 113.711 99.1094 113.293 98.7461C112.875 98.3828 112.24 98.1113 111.389 97.9316L110.516 97.75C110.082 97.6602 109.756 97.5625 109.537 97.457C109.318 97.3516 109.209 97.1973 109.209 96.9941V96.9824C109.209 96.8379 109.252 96.7227 109.338 96.6367C109.428 96.5469 109.559 96.4824 109.73 96.4434C109.902 96.4004 110.113 96.3789 110.363 96.3789C110.609 96.3789 110.824 96.4102 111.008 96.4727C111.191 96.5352 111.34 96.6309 111.453 96.7598C111.566 96.8848 111.639 97.0449 111.67 97.2402L111.676 97.2461H113.768L113.779 97.2402C113.756 96.7129 113.607 96.2578 113.334 95.875C113.061 95.4883 112.67 95.1914 112.162 94.9844C111.658 94.7734 111.045 94.668 110.322 94.668C109.674 94.668 109.096 94.7656 108.588 94.9609C108.084 95.1562 107.686 95.4414 107.393 95.8164C107.104 96.1875 106.959 96.6387 106.959 97.1699V97.1816C106.959 97.8652 107.174 98.4004 107.604 98.7871C108.033 99.1699 108.648 99.4473 109.449 99.6191L110.322 99.8008C110.799 99.8984 111.143 99.9961 111.354 100.094C111.564 100.188 111.67 100.346 111.67 100.568V100.58C111.67 100.732 111.615 100.852 111.506 100.938C111.396 101.023 111.244 101.084 111.049 101.119C110.854 101.15 110.627 101.166 110.369 101.166C110.123 101.166 109.906 101.145 109.719 101.102C109.535 101.055 109.385 100.979 109.268 100.873C109.15 100.768 109.074 100.629 109.039 100.457L109.033 100.451H106.93L106.918 100.457C106.934 100.988 107.082 101.434 107.363 101.793C107.648 102.152 108.043 102.424 108.547 102.607C109.055 102.787 109.648 102.877 110.328 102.877ZM110.1 103.82H110.744V93.6953H110.1V103.82Z" fill="#F82766"/>
</g>
<defs>
<linearGradient id="paint0_linear_2_3" x1="64" y1="18" x2="64" y2="149.5" gradientUnits="userSpaceOnUse">
<stop stop-color="#7DC5F5"/>
<stop offset="0.515625" stop-color="#11669E" stop-opacity="0.77"/>
<stop offset="0.916148" stop-color="#10659D" stop-opacity="0"/>
</linearGradient>
<clipPath id="clip0_2_3">
<rect width="128" height="128" fill="white"/>
</clipPath>
</defs>
</svg>
